<mxfile host="app.diagrams.net" modified="2022-11-12T07:13:15.900Z" agent="5.0 (Windows NT 10.0; Win64; x64) AppleWebKit/537.36 (KHTML, like Gecko) Chrome/107.0.0.0 Safari/537.36" etag="vEE99CZ3xnBfeMj01_U-" version="20.5.3" type="github">
  <diagram id="C5RBs43oDa-KdzZeNtuy" name="Page-1">
    <mxGraphModel dx="1422" dy="762" grid="1" gridSize="10" guides="1" tooltips="1" connect="1" arrows="1" fold="1" page="1" pageScale="1" pageWidth="1169" pageHeight="827" math="0" shadow="0">
      <root>
        <mxCell id="WIyWlLk6GJQsqaUBKTNV-0" />
        <mxCell id="WIyWlLk6GJQsqaUBKTNV-1" parent="WIyWlLk6GJQsqaUBKTNV-0" />
        <mxCell id="Ya4NMBJXrE17Hje8Jy_5-3" style="edgeStyle=orthogonalEdgeStyle;rounded=0;orthogonalLoop=1;jettySize=auto;html=1;exitX=1;exitY=0.5;exitDx=0;exitDy=0;exitPerimeter=0;entryX=0;entryY=0.5;entryDx=0;entryDy=0;fontFamily=Lucida Console;fontSize=15;" edge="1" parent="WIyWlLk6GJQsqaUBKTNV-1" source="Ya4NMBJXrE17Hje8Jy_5-1" target="Ya4NMBJXrE17Hje8Jy_5-2">
          <mxGeometry relative="1" as="geometry" />
        </mxCell>
        <mxCell id="Ya4NMBJXrE17Hje8Jy_5-1" value="&lt;font face=&quot;Lucida Console&quot; style=&quot;font-size: 15px;&quot;&gt;user searches&lt;/font&gt;" style="strokeWidth=2;html=1;shape=mxgraph.flowchart.terminator;whiteSpace=wrap;fillColor=#fff2cc;strokeColor=#d6b656;" vertex="1" parent="WIyWlLk6GJQsqaUBKTNV-1">
          <mxGeometry x="60" y="60" width="160" height="60" as="geometry" />
        </mxCell>
        <mxCell id="Ya4NMBJXrE17Hje8Jy_5-5" style="edgeStyle=orthogonalEdgeStyle;rounded=0;orthogonalLoop=1;jettySize=auto;html=1;exitX=1;exitY=0.5;exitDx=0;exitDy=0;entryX=0;entryY=0.5;entryDx=0;entryDy=0;fontFamily=Lucida Console;fontSize=15;" edge="1" parent="WIyWlLk6GJQsqaUBKTNV-1" source="Ya4NMBJXrE17Hje8Jy_5-2" target="Ya4NMBJXrE17Hje8Jy_5-4">
          <mxGeometry relative="1" as="geometry" />
        </mxCell>
        <mxCell id="Ya4NMBJXrE17Hje8Jy_5-9" style="edgeStyle=orthogonalEdgeStyle;rounded=0;orthogonalLoop=1;jettySize=auto;html=1;exitX=1;exitY=0.75;exitDx=0;exitDy=0;entryX=0;entryY=0.25;entryDx=0;entryDy=0;fontFamily=Lucida Console;fontSize=15;" edge="1" parent="WIyWlLk6GJQsqaUBKTNV-1" source="Ya4NMBJXrE17Hje8Jy_5-2" target="Ya4NMBJXrE17Hje8Jy_5-6">
          <mxGeometry relative="1" as="geometry" />
        </mxCell>
        <mxCell id="Ya4NMBJXrE17Hje8Jy_5-2" value="load search results" style="rounded=0;whiteSpace=wrap;html=1;fontFamily=Lucida Console;fontSize=15;fillColor=#f8cecc;strokeColor=#b85450;" vertex="1" parent="WIyWlLk6GJQsqaUBKTNV-1">
          <mxGeometry x="290" y="60" width="120" height="60" as="geometry" />
        </mxCell>
        <mxCell id="Ya4NMBJXrE17Hje8Jy_5-16" style="edgeStyle=orthogonalEdgeStyle;rounded=0;orthogonalLoop=1;jettySize=auto;html=1;exitX=1;exitY=0.5;exitDx=0;exitDy=0;entryX=0;entryY=0.5;entryDx=0;entryDy=0;entryPerimeter=0;dashed=1;fontFamily=Lucida Console;fontSize=15;" edge="1" parent="WIyWlLk6GJQsqaUBKTNV-1" source="Ya4NMBJXrE17Hje8Jy_5-4" target="Ya4NMBJXrE17Hje8Jy_5-15">
          <mxGeometry relative="1" as="geometry" />
        </mxCell>
        <mxCell id="Ya4NMBJXrE17Hje8Jy_5-17" value="Bind handler" style="edgeLabel;html=1;align=center;verticalAlign=top;resizable=0;points=[];fontSize=15;fontFamily=Lucida Console;spacing=2;labelPosition=center;verticalLabelPosition=middle;" vertex="1" connectable="0" parent="Ya4NMBJXrE17Hje8Jy_5-16">
          <mxGeometry x="0.3" y="-2" relative="1" as="geometry">
            <mxPoint as="offset" />
          </mxGeometry>
        </mxCell>
        <mxCell id="Ya4NMBJXrE17Hje8Jy_5-4" value="Render search results" style="rounded=1;whiteSpace=wrap;html=1;fontFamily=Lucida Console;fontSize=15;fillColor=#d5e8d4;strokeColor=#82b366;" vertex="1" parent="WIyWlLk6GJQsqaUBKTNV-1">
          <mxGeometry x="500" y="60" width="120" height="60" as="geometry" />
        </mxCell>
        <mxCell id="Ya4NMBJXrE17Hje8Jy_5-13" style="edgeStyle=orthogonalEdgeStyle;rounded=0;orthogonalLoop=1;jettySize=auto;html=1;exitX=0;exitY=0.75;exitDx=0;exitDy=0;entryX=0.941;entryY=0.75;entryDx=0;entryDy=0;entryPerimeter=0;fontFamily=Lucida Console;fontSize=15;dashed=1;" edge="1" parent="WIyWlLk6GJQsqaUBKTNV-1" source="Ya4NMBJXrE17Hje8Jy_5-6" target="Ya4NMBJXrE17Hje8Jy_5-10">
          <mxGeometry relative="1" as="geometry" />
        </mxCell>
        <mxCell id="Ya4NMBJXrE17Hje8Jy_5-14" value="Bind handler" style="edgeLabel;html=1;align=center;verticalAlign=top;resizable=0;points=[];fontSize=15;fontFamily=Lucida Console;" vertex="1" connectable="0" parent="Ya4NMBJXrE17Hje8Jy_5-13">
          <mxGeometry x="-0.1518" relative="1" as="geometry">
            <mxPoint as="offset" />
          </mxGeometry>
        </mxCell>
        <mxCell id="Ya4NMBJXrE17Hje8Jy_5-6" value="Render pagination buttons" style="rounded=1;whiteSpace=wrap;html=1;fontFamily=Lucida Console;fontSize=15;fillColor=#d5e8d4;strokeColor=#82b366;" vertex="1" parent="WIyWlLk6GJQsqaUBKTNV-1">
          <mxGeometry x="500" y="170" width="120" height="60" as="geometry" />
        </mxCell>
        <mxCell id="Ya4NMBJXrE17Hje8Jy_5-11" style="edgeStyle=orthogonalEdgeStyle;rounded=0;orthogonalLoop=1;jettySize=auto;html=1;entryX=0;entryY=0.5;entryDx=0;entryDy=0;fontFamily=Lucida Console;fontSize=15;" edge="1" parent="WIyWlLk6GJQsqaUBKTNV-1" source="Ya4NMBJXrE17Hje8Jy_5-10" target="Ya4NMBJXrE17Hje8Jy_5-6">
          <mxGeometry relative="1" as="geometry" />
        </mxCell>
        <mxCell id="Ya4NMBJXrE17Hje8Jy_5-12" style="edgeStyle=orthogonalEdgeStyle;rounded=0;orthogonalLoop=1;jettySize=auto;html=1;exitX=0.89;exitY=0.11;exitDx=0;exitDy=0;exitPerimeter=0;entryX=0.5;entryY=1;entryDx=0;entryDy=0;fontFamily=Lucida Console;fontSize=15;" edge="1" parent="WIyWlLk6GJQsqaUBKTNV-1" source="Ya4NMBJXrE17Hje8Jy_5-10" target="Ya4NMBJXrE17Hje8Jy_5-4">
          <mxGeometry relative="1" as="geometry">
            <Array as="points">
              <mxPoint x="201" y="150" />
              <mxPoint x="560" y="150" />
            </Array>
          </mxGeometry>
        </mxCell>
        <mxCell id="Ya4NMBJXrE17Hje8Jy_5-10" value="&lt;font face=&quot;Lucida Console&quot; style=&quot;font-size: 15px;&quot;&gt;user clicks pagination button&lt;/font&gt;" style="strokeWidth=2;html=1;shape=mxgraph.flowchart.terminator;whiteSpace=wrap;fillColor=#fff2cc;strokeColor=#d6b656;" vertex="1" parent="WIyWlLk6GJQsqaUBKTNV-1">
          <mxGeometry x="50" y="170" width="170" height="60" as="geometry" />
        </mxCell>
        <mxCell id="Ya4NMBJXrE17Hje8Jy_5-18" style="edgeStyle=orthogonalEdgeStyle;rounded=0;orthogonalLoop=1;jettySize=auto;html=1;exitX=0.5;exitY=0;exitDx=0;exitDy=0;exitPerimeter=0;entryX=0.5;entryY=0;entryDx=0;entryDy=0;fontFamily=Lucida Console;fontSize=15;" edge="1" parent="WIyWlLk6GJQsqaUBKTNV-1" source="Ya4NMBJXrE17Hje8Jy_5-15" target="Ya4NMBJXrE17Hje8Jy_5-4">
          <mxGeometry relative="1" as="geometry" />
        </mxCell>
        <mxCell id="Ya4NMBJXrE17Hje8Jy_5-19" value="Mark selected result" style="edgeLabel;html=1;align=center;verticalAlign=bottom;resizable=0;points=[];fontSize=15;fontFamily=Lucida Console;" vertex="1" connectable="0" parent="Ya4NMBJXrE17Hje8Jy_5-18">
          <mxGeometry x="-0.1515" y="-2" relative="1" as="geometry">
            <mxPoint as="offset" />
          </mxGeometry>
        </mxCell>
        <mxCell id="Ya4NMBJXrE17Hje8Jy_5-23" style="edgeStyle=orthogonalEdgeStyle;rounded=0;orthogonalLoop=1;jettySize=auto;html=1;exitX=1;exitY=0.5;exitDx=0;exitDy=0;exitPerimeter=0;entryX=0;entryY=0.367;entryDx=0;entryDy=0;entryPerimeter=0;strokeColor=#000000;strokeWidth=1;fontFamily=Lucida Console;fontSize=15;" edge="1" parent="WIyWlLk6GJQsqaUBKTNV-1" source="Ya4NMBJXrE17Hje8Jy_5-15" target="Ya4NMBJXrE17Hje8Jy_5-22">
          <mxGeometry relative="1" as="geometry" />
        </mxCell>
        <mxCell id="Ya4NMBJXrE17Hje8Jy_5-15" value="&lt;font face=&quot;Lucida Console&quot; style=&quot;font-size: 15px;&quot;&gt;user selects recipe&lt;/font&gt;" style="strokeWidth=2;html=1;shape=mxgraph.flowchart.terminator;whiteSpace=wrap;fillColor=#fff2cc;strokeColor=#d6b656;" vertex="1" parent="WIyWlLk6GJQsqaUBKTNV-1">
          <mxGeometry x="780" y="60" width="140" height="60" as="geometry" />
        </mxCell>
        <mxCell id="Ya4NMBJXrE17Hje8Jy_5-24" style="edgeStyle=orthogonalEdgeStyle;rounded=0;orthogonalLoop=1;jettySize=auto;html=1;exitX=1;exitY=0.5;exitDx=0;exitDy=0;exitPerimeter=0;entryX=0;entryY=0.75;entryDx=0;entryDy=0;strokeColor=#000000;strokeWidth=1;fontFamily=Lucida Console;fontSize=15;" edge="1" parent="WIyWlLk6GJQsqaUBKTNV-1" source="Ya4NMBJXrE17Hje8Jy_5-20" target="Ya4NMBJXrE17Hje8Jy_5-22">
          <mxGeometry relative="1" as="geometry" />
        </mxCell>
        <mxCell id="Ya4NMBJXrE17Hje8Jy_5-20" value="&lt;font face=&quot;Lucida Console&quot;&gt;&lt;span style=&quot;font-size: 15px;&quot;&gt;Page loads with recipe ID&lt;/span&gt;&lt;/font&gt;" style="strokeWidth=2;html=1;shape=mxgraph.flowchart.terminator;whiteSpace=wrap;fillColor=#fff2cc;strokeColor=#d6b656;" vertex="1" parent="WIyWlLk6GJQsqaUBKTNV-1">
          <mxGeometry x="780" y="150" width="140" height="60" as="geometry" />
        </mxCell>
        <mxCell id="Ya4NMBJXrE17Hje8Jy_5-26" style="edgeStyle=orthogonalEdgeStyle;rounded=0;orthogonalLoop=1;jettySize=auto;html=1;exitX=0.5;exitY=1;exitDx=0;exitDy=0;entryX=0.5;entryY=0;entryDx=0;entryDy=0;strokeColor=#000000;strokeWidth=1;fontFamily=Lucida Console;fontSize=15;" edge="1" parent="WIyWlLk6GJQsqaUBKTNV-1" source="Ya4NMBJXrE17Hje8Jy_5-22" target="Ya4NMBJXrE17Hje8Jy_5-25">
          <mxGeometry relative="1" as="geometry" />
        </mxCell>
        <mxCell id="Ya4NMBJXrE17Hje8Jy_5-22" value="Load recipe" style="rounded=0;whiteSpace=wrap;html=1;fontFamily=Lucida Console;fontSize=15;fillColor=#f8cecc;strokeColor=#b85450;" vertex="1" parent="WIyWlLk6GJQsqaUBKTNV-1">
          <mxGeometry x="980" y="100" width="120" height="60" as="geometry" />
        </mxCell>
        <mxCell id="Ya4NMBJXrE17Hje8Jy_5-25" value="Render recipe" style="rounded=1;whiteSpace=wrap;html=1;fontFamily=Lucida Console;fontSize=15;fillColor=#d5e8d4;strokeColor=#82b366;" vertex="1" parent="WIyWlLk6GJQsqaUBKTNV-1">
          <mxGeometry x="980" y="260" width="120" height="60" as="geometry" />
        </mxCell>
      </root>
    </mxGraphModel>
  </diagram>
</mxfile>
